<?xml version="1.0" encoding="UTF-8"?> <svg xmlns="http://www.w3.org/2000/svg" id="icon" viewBox="0 0 1000 1000"><path d="M910,240H90a70.08,70.08,0,0,0-70,70V670a90.1,90.1,0,0,0,90,90H890a90.1,90.1,0,0,0,90-90V310A70.08,70.08,0,0,0,910,240ZM90,296H910a10,10,0,0,1,10,10V516H80V306A10,10,0,0,1,90,296ZM750,703H190V648H750Zm140,0H800V600H140V703H110a30,30,0,0,1-30-30V565H920V673A30,30,0,0,1,890,703Z"></path><rect x="160" y="342.5" width="680" height="44"></rect><rect x="160" y="423.5" width="680" height="44"></rect><circle cx="860" cy="640" r="30"></circle></svg> 