<?xml version="1.0" encoding="UTF-8"?> <svg xmlns="http://www.w3.org/2000/svg" id="icon" viewBox="0 0 1000 1000"><path d="M726.27,566.27A319.66,319.66,0,1,0,420,650V802.37l-96.48,27.57A60.24,60.24,0,0,0,280,887.63V960H720V887.63a60.24,60.24,0,0,0-43.52-57.69L580,802.37V650A318,318,0,0,0,726.27,566.27ZM240,340a260,260,0,1,1,76.15,183.85A258.29,258.29,0,0,1,240,340ZM662,881.63V903H338V881.63l142-40V659.36c6.78.93,33.52.93,40,0V841.63Z"></path><path d="M356.52,524.44c27.33,18.89,82.76,47.7,143.48,47.7,37.71,0,65.15-7.57,83.88-23.16,17.81-14.83,26.84-36.05,26.84-63.07,0-25.14-9.29-49.31-19.11-67.85,36.55,10.36,68,37.21,92.83,65.42,18.89-27.33,47.7-82.76,47.7-143.48,0-37.71-7.57-65.15-23.16-83.88-14.83-17.81-36.05-26.84-63.07-26.84-25.14,0-49.31,9.29-67.85,19.11,10.36-36.55,37.21-68,65.42-92.83-27.33-18.89-82.76-47.7-143.48-47.7-37.71,0-65.15,7.57-83.88,23.16-17.81,14.83-26.84,36-26.84,63.07,0,25.14,9.29,49.31,19.11,67.85-36.55-10.36-68-37.21-92.83-65.42-18.89,27.33-47.7,82.76-47.7,143.48,0,37.71,7.57,65.15,23.16,83.88,14.83,17.81,36.05,26.84,63.07,26.84,25.14,0,49.31-9.29,67.85-19.11C411.58,468.16,384.73,499.61,356.52,524.44Zm196-10.79c-9.2,8.09-21.17,11.49-52.54,11.49-23.31,0-49.33-6.94-64.43-13.19,17.25-23.62,29.19-46.95,35.53-71a105,105,0,0,0,73.45-5.88c9.07,14.59,17.17,32.75,17.17,50.84C561.72,498.74,559.13,507.85,552.54,513.65ZM555,340a55,55,0,1,1-55-55A55.06,55.06,0,0,1,555,340Zm118.65-52.54c8.09,9.2,11.49,21.17,11.49,52.54,0,23.31-6.94,49.33-13.19,64.43-23.62-17.25-47-29.19-71-35.53a105,105,0,0,0-5.88-73.45c14.59-9.07,32.75-17.17,50.84-17.17C658.74,278.28,667.85,280.87,673.65,287.46ZM447.46,166.35c9.2-8.09,21.17-11.49,52.54-11.49,23.31,0,49.33,6.94,64.43,13.19-17.25,23.62-29.19,46.95-35.53,71a105,105,0,0,0-73.45,5.88c-9.07-14.59-17.17-32.75-17.17-50.84C438.28,181.26,440.87,172.15,447.46,166.35ZM326.35,392.54c-8.09-9.2-11.49-21.17-11.49-52.54,0-23.31,6.94-49.33,13.19-64.43,23.62,17.25,46.95,29.19,71,35.53a105,105,0,0,0,5.88,73.45c-14.59,9.07-32.75,17.17-50.84,17.17C341.26,401.72,332.15,399.13,326.35,392.54Z"></path></svg> 