<?xml version="1.0" encoding="UTF-8"?> <svg xmlns="http://www.w3.org/2000/svg" id="icon" viewBox="0 0 1000 1000"><polygon points="537.93 924 442.06 924 432.28 870 371.49 870 395.94 980 584.07 980 608.51 870 547.72 870 537.93 924"></polygon><path d="M500,20C339.84,20,180,144.3,180,340c0,95.91,43.58,186.28,118.81,248.83,11.43,9.5,11.19,11.61,11.19,20.7v27.78C310,666.5,329.31,680,356,680H644c26.72,0,46-13.5,46-42.69V609.53c0-9.09-.24-11.2,11.19-20.7C776.42,526.28,820,435.91,820,340,820,144.3,660.16,20,500,20ZM663,542.53c-29.69,25.87-33,37.4-33,62.69V623H370V605.22c0-25.29-3.34-36.82-33-62.69-60.2-52.47-97-124.6-97-202.53C240,177.11,373.53,77,500,77S760,177.11,760,340C760,417.93,723.23,490.06,663,542.53Z"></path><rect x="360" y="710" width="260" height="50"></rect><rect x="360" y="790" width="260" height="50"></rect></svg> 