<?xml version="1.0" encoding="UTF-8"?> <!-- Generator: Adobe Illustrator 23.1.1, SVG Export Plug-In . SVG Version: 6.00 Build 0) --> <svg xmlns="http://www.w3.org/2000/svg" xmlns:xlink="http://www.w3.org/1999/xlink" id="icon" x="0px" y="0px" viewBox="0 0 1000 1000" style="enable-background:new 0 0 1000 1000;" xml:space="preserve"> <path d="M668.3,60H160v880h680V231.7L668.3,60z M679,127.3l94.7,94.7H679V127.3z M800,900H200V100h440v160h160V900z M344.4,364.4 C302.9,406,280,461.2,280,520c0,58.8,22.9,114,64.4,155.6S441.2,740,500,740s114-22.9,155.6-64.4S720,578.8,720,520 c0-58.8-22.9-114-64.4-155.6C614,322.9,558.8,300,500,300S386,322.9,344.4,364.4z M680,520c0,99.3-80.7,180-180,180 s-180-80.7-180-180s80.7-180,180-180S680,420.7,680,520z M432.5,630.2L625.3,520L432.5,409.8V630.2z M467.5,470.2l87.2,49.8 l-87.2,49.8V470.2z"></path> </svg> 