<?xml version="1.0" encoding="UTF-8"?> <!-- Generator: Adobe Illustrator 23.1.1, SVG Export Plug-In . SVG Version: 6.00 Build 0) --> <svg xmlns="http://www.w3.org/2000/svg" xmlns:xlink="http://www.w3.org/1999/xlink" id="icon" x="0px" y="0px" viewBox="0 0 1000 1000" style="enable-background:new 0 0 1000 1000;" xml:space="preserve"> <path d="M668.3,60H160v880h680V231.7L668.3,60z M679,127.3l94.7,94.7H679V127.3z M800,900H200V100h440v160h160V900z M260,780h480 V340H260V780z M300,379h400v316.3l-100-100l-60,60L401.1,516.3L300,600.6V379z M300,646.1l98.9-82.4L540,704.7l60-60l96.3,96.3H300 V646.1z M560,567.5c42.7,0,77.5-34.8,77.5-77.5s-34.8-77.5-77.5-77.5s-77.5,34.8-77.5,77.5S517.3,567.5,560,567.5z M560,447.5 c23.4,0,42.5,19.1,42.5,42.5c0,23.4-19.1,42.5-42.5,42.5s-42.5-19.1-42.5-42.5C517.5,466.6,536.6,447.5,560,447.5z"></path> </svg> 