<?xml version="1.0" encoding="UTF-8"?> <!-- Generator: Adobe Illustrator 23.1.1, SVG Export Plug-In . SVG Version: 6.00 Build 0) --> <svg xmlns="http://www.w3.org/2000/svg" xmlns:xlink="http://www.w3.org/1999/xlink" id="icon" x="0px" y="0px" viewBox="0 0 1000 1000" style="enable-background:new 0 0 1000 1000;" xml:space="preserve"> <path d="M668.3,60H160v880h680V231.7L668.3,60z M679,127.3l94.7,94.7H679V127.3z M800,900H200V100h440v160h160V900z M380,360v233.2 c-11.9-8.4-26.2-13.2-43.2-13.2c-44.5,0-76.8,29.6-76.8,71.6c0,41.1,30.3,68.4,72.1,68.4c20.7,0,42.1-7.7,58.6-21.2 c18.9-15.4,29.2-37.9,29.2-63.8V480h220v113.2c-11.9-8.4-26.2-13.2-43.2-13.2c-44.5,0-76.8,29.6-76.8,71.6 c0,41.1,30.3,68.4,72.1,68.4c20.7,0,42.1-7.7,58.6-21.2c18.9-15.4,29.2-37.9,29.2-63.8V360H380z M333.1,682 c-18.6,0-33.1-11.9-33.1-30.4c0-23.2,18.4-34.6,36.8-34.6c20.8,0,36.1,9.6,45.8,27.2C380.2,662.8,359.8,682,333.1,682z M593.1,682 c-18.6,0-33.1-11.9-33.1-30.4c0-23.2,18.4-34.6,36.8-34.6c20.8,0,36.1,9.6,45.8,27.2C640.2,662.8,619.8,682,593.1,682z M640,442H420 v-44h220V442z"></path> </svg> 